<?xml version="1.0" encoding="utf-8"?>
<!-- Generator: Adobe Illustrator 19.2.1, SVG Export Plug-In . SVG Version: 6.00 Build 0)  -->
<svg version="1.1" id="layer" xmlns="http://www.w3.org/2000/svg" xmlns:xlink="http://www.w3.org/1999/xlink" x="0px" y="0px"
	 viewBox="0 0 652 652" style="enable-background:new 0 0 652 652;" xml:space="preserve">
<style type="text/css">
	.st0{fill:#002F54;}
	.st1{fill:#00AEEF;}
	.st2{clip-path:url(#SVGID_2_);}
	.st3{fill:url(#SVGID_3_);}
	.st4{fill:#231F20;stroke:#231F20;stroke-width:0.4902;stroke-miterlimit:10;}
</style>
<g id="CMYK">
	<rect x="139.1" y="263.1" class="st0" width="21.7" height="69.2"/>
	<polygon class="st0" points="168.2,263 216.6,263 216.6,279.7 189.9,279.7 189.9,290.9 213.7,290.9 213.7,307.6 189.9,307.6 
		189.9,332.3 168.2,332.3 	"/>
	<g>
		<g>
			<path class="st0" d="M269.1,330.5c-5,1.7-10.3,2.7-15.5,2.8c-18.8,0-33.8-12.1-33.8-36.8c0-23.2,15.7-34.8,33.8-34.8
				c5.2,0.1,10.4,0.8,15.4,2.1v18.2c-3.4-1.5-7.1-2.4-10.8-2.5c-9.2,0-16.2,6-16.2,17.4c0,11.9,6.5,17.9,15.5,17.9
				c4.1-0.1,8.1-1,11.8-2.7L269.1,330.5z"/>
			<path class="st0" d="M493.7,323.1c3.5,0,5.4,1.7,5.4,4.8c0.1,2.5-1.8,4.6-4.3,4.7c-0.2,0-0.5,0-0.7,0h-2.2v4.5h-3v-13.9H493.7z
				 M491.8,330.1h1.7c1.7,0,2.6-0.8,2.6-2.2c0-1.5-1-2.3-2.7-2.3h-1.7L491.8,330.1z M483.4,331.4c0,2-0.8,3-2.4,3s-2.4-1-2.4-3v-8.3
				h-2.9v8.1c-0.1,1.6,0.4,3.2,1.5,4.5c1.1,1,2.5,1.5,3.9,1.4c2.5,0,5.3-1,5.3-5.9v-8.1h-2.9V331.4z M467.6,322.9c3,0,6.2,2,6.2,7.1
				s-3.2,7-6.2,7s-6.2-1.8-6.2-7C461.4,324.8,464.6,322.9,467.6,322.9 M467.6,334.4c1.2,0,3.1-0.6,3.1-4.4s-2-4.5-3.1-4.5
				c-2,0-3.2,1.6-3.2,4.5C464.4,332.9,465.5,334.4,467.6,334.4 M458.3,332.7c0.5,1,0.9,1.8,2,1.8h0.7v2.3h-0.2
				c-0.5,0.1-1,0.1-1.4,0.1c-2.3,0-3-1.6-3.7-3c-0.6-1.4-1-2.2-2.2-2.2h-1.3v5.1h-3v-13.7h4.9c3.6,0,5.2,1.4,5.2,4.4
				c0,1.5-0.8,2.9-2.2,3.5C457.7,331.6,458.1,332.2,458.3,332.7 M452.2,329.6h1.6c1.6,0,2.7-0.8,2.7-2c0-1.2-0.9-2-2.5-2h-1.8V329.6
				z M441.4,331.9h3v0.2c0.1,1.2-0.7,2.3-1.9,2.4c0,0,0,0,0,0c-0.1,0-0.3,0-0.5,0c-2,0-3.2-1.6-3.2-4.4c0-2.7,1.2-4.5,3.1-4.5
				c1.4,0,2.5,1.1,2.5,2.5c0,0,0,0,0,0l0,0v0.2l2.7-0.4v-0.1c-0.1-2.7-2.5-4.9-5.2-4.7l0,0c-3.9,0-6.1,2.6-6.1,7.1
				c0,4.5,2.3,7,6.2,7c2.7,0.2,5-1.7,5.3-4.4c0-0.2,0-0.4,0-0.6v-2.5h-5.9L441.4,331.9z M432.6,323.2h-3.5l-4.6,6.2v-6.3h-2.9v13.8
				h3v-6.4l4.7,6.4h3.5l-5.3-7L432.6,323.2z M416,331.7l-4.8-8.6h-3v13.8h3v-8.3l4.8,8.3h3v-13.8H416L416,331.7z M402.2,323.3
				l5,13.7h-3.1l-1.2-3.4h-4.6l-1.2,3.4h-2.9l5.1-13.8h2.9L402.2,323.3z M400.7,326.9l-1.5,4.4h3L400.7,326.9z M391.5,329.7
				c1.6,0.3,2.7,1.7,2.7,3.3c0,2.5-1.8,3.9-4.8,3.9h-5.9v-13.7h5.3c3,0,4.5,1.3,4.5,3.7c0,2-0.9,2.6-1.5,2.8 M388.3,328.7
				c1.2,0,1.8-0.5,1.8-1.6c0-1.1-0.7-1.6-2.2-1.6h-1.6v3.2L388.3,328.7z M386.3,334.4h2.3c1.5,0,2.2-0.6,2.2-1.8s-1.2-1.8-2.3-1.8
				h-2.2V334.4z M371.2,323c4.3,0,6.9,2.7,6.9,7.2c0,4.5-2.3,6.7-6.3,6.7h-4.7v-13.7L371.2,323z M370.1,334.4h1.7
				c2.1,0,3.4-1.6,3.4-4.3c0-3.1-1.4-4.6-3.9-4.6h-1.1L370.1,334.4z M359.8,323h-2.9v13.8h8.9v-2.5h-6L359.8,323z M352.8,332.7
				c0.5,1,0.9,1.8,2,1.8h0.7v2.3l0,0c-0.5,0.1-1,0.1-1.4,0.1c-2.3,0-3-1.6-3.7-3c-0.6-1.4-1-2.2-2.2-2.2h-1.3v5.1H344v-13.7h4.9
				c3.6,0,5.3,1.4,5.3,4.4c0,1.5-0.8,2.9-2.2,3.5c0.5,0.5,0.8,1.1,1.1,1.8 M346.9,329.6h1.6c1.6,0,2.7-0.8,2.7-2c0-1.2-0.9-2-2.4-2
				h-2L346.9,329.6z M336.1,323c3,0,6.2,2,6.2,7.1s-3.2,7-6.2,7s-6.2-1.8-6.2-7C329.9,324.9,333.1,323,336.1,323 M336.1,334.5
				c1.2,0,3.1-0.6,3.1-4.4s-2-4.5-3.1-4.5c-2,0-3.1,1.6-3.1,4.5C333,332.9,334.1,334.5,336.1,334.5 M326.2,323.1h3.3l-3.9,13.8h-3.3
				l-2.5-8.8l-2.5,8.7h-3.4l-3.9-13.8h3.4l2.5,10.1l2.8-10.1h2.5l2.6,10.1L326.2,323.1z"/>
			<rect x="311.2" y="259.6" class="st1" width="5.6" height="21"/>
			<path class="st1" d="M320.4,264.9h4.9v2.9l0,0c1.1-2.1,3.3-3.4,5.7-3.2c3.1-0.2,5.8,2.2,6,5.3c0,0,0,0,0,0c0,0.3,0,0.6,0,0.9v9.8
				h-5.4V273c0-2.9-1-3.9-2.5-3.9c-2.2,0-3.4,1.5-3.4,4.9v6.6h-5.4L320.4,264.9z"/>
			<path class="st1" d="M338.8,264.9h3.2v-3.5l5.3-1.6v5.2h3.7v3.8h-3.8v5.9c0,2,0.5,2.9,2.2,2.9c0.6,0,1.1-0.1,1.7-0.2l0.2,3.5
				c-1.1,0.2-2.3,0.3-3.4,0.3c-4.9,0-6-2.1-6-5.9v-6.5h-3.1L338.8,264.9z"/>
			<path class="st1" d="M357.9,274.3c0.3,2.2,2,3,4.6,3c1.7,0,3.3-0.4,4.8-1.2v3.8c-1.8,0.7-3.8,1-5.7,1c-5.2,0-9.1-3-9.1-8.2
				c-0.2-4.3,3.2-8,7.5-8.2h0.8c5.9,0,7.8,4.1,7.8,8.8v1H357.9z M363.8,271.3c0.2-1.6-0.8-3-2.4-3.3c0,0,0,0,0,0c-0.2,0-0.4,0-0.6,0
				c-2,0-2.9,1.5-3,3.3L363.8,271.3z"/>
			<path class="st1" d="M382.5,269.2c-0.6-0.1-1.2-0.2-1.8-0.2c-2.5,0-3.9,1.8-3.9,4.9v6.6h-5.4v-15.7h4.9v2.9l0,0
				c0.7-2,2.5-3.3,4.6-3.2c0.6,0,1.2,0.1,1.8,0.2L382.5,269.2z"/>
			<path class="st1" d="M384.9,264.9h4.9v2.9l0,0c1.1-2.1,3.3-3.4,5.7-3.2c3.1-0.2,5.8,2.2,6,5.4c0,0.3,0,0.6,0,0.9v9.8h-5.5V273
				c0-2.9-1-3.9-2.5-3.9c-2.2,0-3.4,1.5-3.4,4.9v6.6h-5.4L384.9,264.9z"/>
			<path class="st1" d="M414.9,280.6c0-0.8-0.1-1.6-0.1-2.5l0,0c-1,1.8-2.9,2.9-5,2.8c-3.1,0-5.9-1.5-5.9-4.9c0-4.8,5.2-5.4,8.1-5.4
				c0.8,0,1.7,0.1,2.5,0.2c0-2.1-1.6-2.7-3.6-2.7c-1.7,0-3.4,0.4-5,1.2v-3.7c2-0.8,4.1-1.1,6.3-1.1c3.9,0,7.5,1.7,7.5,6.5v5.9
				c0,1.2,0.1,2.5,0.3,3.7L414.9,280.6z M411.2,277.3c1.9-0.1,3.4-1.7,3.4-3.7h-2.3c-1.8,0-3.3,0.6-3.3,2.1
				C409,276.8,409.9,277.4,411.2,277.3"/>
			<path class="st1" d="M421.4,264.9h3.2v-3.5l5.3-1.6v5.2h3.8v3.8h-3.8v5.9c0,2,0.5,2.9,2.2,2.9c0.6,0,1.1-0.1,1.7-0.2l0.2,3.5
				c-1.1,0.2-2.3,0.3-3.4,0.3c-4.8,0-6-2.1-6-5.9v-6.5h-3.1V264.9z"/>
			<path class="st1" d="M441.9,262.3h-5.4v-3.9h5.4V262.3z M436.5,264.9h5.4v15.7h-5.4V264.9z"/>
			<path class="st1" d="M444.8,272.8c0-5.2,3.9-8.2,9.1-8.2c5.2,0,9.1,3,9.1,8.2s-3.9,8.2-9.1,8.2
				C448.8,280.9,444.8,277.9,444.8,272.8 M457.5,272.8c0-2.4-1-4.4-3.5-4.4c-2.5,0-3.5,2.1-3.5,4.4c0,2.4,1,4.4,3.5,4.4
				C456.4,277.2,457.5,275.1,457.5,272.8"/>
			<path class="st1" d="M465.4,264.9h4.9v2.9l0,0c1.1-2.1,3.3-3.4,5.7-3.2c3.1-0.2,5.8,2.2,6,5.3c0,0,0,0,0,0c0,0.3,0,0.6,0,0.9v9.8
				h-5.4V273c0-2.9-1-3.9-2.5-3.9c-2.2,0-3.4,1.5-3.4,4.9v6.6h-5.4L465.4,264.9z"/>
			<path class="st1" d="M495.4,280.6c0-0.8-0.1-1.6-0.1-2.5l0,0c-1,1.9-3,3-5.1,2.8c-3.1,0-5.9-1.5-5.9-4.9c0-4.8,5.2-5.4,8.1-5.4
				c0.8,0,1.7,0.1,2.5,0.2c0-2.1-1.6-2.7-3.6-2.7c-1.7,0-3.4,0.4-5,1.2l-0.1-3.7c2-0.8,4.1-1.1,6.3-1.1c3.9,0,7.5,1.7,7.5,6.5v5.9
				c0,1.2,0.1,2.5,0.3,3.7L495.4,280.6z M491.7,277.3c1.9-0.1,3.4-1.8,3.3-3.7h-2.3c-1.8,0-3.3,0.6-3.3,2.1
				C489.5,276.8,490.4,277.4,491.7,277.3"/>
			<rect x="503.9" y="258" class="st1" width="5.4" height="22.6"/>
			<polygon class="st1" points="311.2,288.1 325.3,288.1 325.3,292.1 316.8,292.1 316.8,296.7 324.9,296.7 324.9,300.7 316.8,300.7 
				316.8,309.1 311.2,309.1 			"/>
			<path class="st1" d="M333.6,290.9h-5.4V287h5.4V290.9z M328.2,293.4h5.4v15.7h-5.4V293.4z"/>
			<path class="st1" d="M337.3,293.4h4.9v2.9l0,0c1.1-2.1,3.3-3.4,5.7-3.3c3.1-0.2,5.8,2.2,6,5.3c0,0,0,0,0,0c0,0.3,0,0.6,0,0.9v9.8
				h-5.4v-7.6c0-2.9-1-3.9-2.5-3.9c-2.2,0-3.4,1.5-3.4,4.9v6.6h-5.4V293.4z"/>
			<path class="st1" d="M367.3,309.1c0-0.8-0.1-1.6-0.1-2.5l0,0c-1,1.8-2.9,2.9-5,2.8c-3.1,0-5.9-1.5-5.9-4.9c0-4.8,5.2-5.4,8.1-5.4
				c0.8,0,1.7,0.1,2.5,0.2c0-2.1-1.6-2.7-3.6-2.7c-1.7,0-3.5,0.4-5,1.2v-3.7c2-0.8,4.1-1.2,6.3-1.1c3.9,0,7.5,1.7,7.5,6.5v5.9
				c0,1.2,0.1,2.5,0.3,3.7L367.3,309.1z M363.6,305.9c1.9-0.1,3.4-1.8,3.3-3.7h-2.2c-1.8,0-3.3,0.6-3.3,2.1
				C361.5,305.3,362.4,306,363.6,305.9"/>
			<path class="st1" d="M375.1,293.4h4.9v2.9l0,0c1.1-2.1,3.3-3.4,5.7-3.3c3.1-0.2,5.8,2.2,6,5.4c0,0.3,0,0.6,0,0.9v9.8h-5.5v-7.6
				c0-2.9-1-3.9-2.5-3.9c-2.2,0-3.4,1.5-3.4,4.9v6.6H375L375.1,293.4z"/>
			<path class="st1" d="M407.2,297.9c-1-0.6-2.1-0.9-3.3-0.9c-2.2-0.1-4.1,1.7-4.2,3.9c0,0,0,0,0,0c0,0.1,0,0.3,0,0.5
				c0.1,2.3,2,4.2,4.3,4.1c0,0,0,0,0,0h0.1c1.2,0,2.3-0.2,3.4-0.7l0.1,4c-1.4,0.5-2.9,0.7-4.4,0.7c-5.2,0-9.1-3-9.1-8.2
				s3.9-8.2,9.1-8.2c1.5,0,3,0.3,4.3,0.9L407.2,297.9z"/>
			<path class="st1" d="M414.4,302.9c0.3,2.2,2,3,4.6,3c1.7,0,3.3-0.4,4.8-1.2v3.9c-1.8,0.7-3.8,1-5.7,1c-5.2,0-9.1-3.1-9.1-8.2
				c-0.2-4.3,3.2-7.9,7.5-8.1h0.9c5.9,0,7.8,4.1,7.8,8.8v1L414.4,302.9z M420.3,299.8c0-1.8-0.8-3.3-3-3.3s-2.9,1.5-3,3.3H420.3z"/>
			<path class="st1" d="M454.4,308.6c-2,0.6-4.1,0.8-6.2,0.8c-5.6,0-12.1-2.8-12.1-10.8c0-7.3,5.1-11,12-11c2.1,0.1,4.2,0.4,6.2,1.1
				l-0.5,4.5c-1.7-1-3.6-1.5-5.5-1.5c-3.7,0-6.8,3-6.8,6.7c0,3.7,3,6.8,6.7,6.8h0.6c1.8,0,3.6-0.4,5.2-1.1L454.4,308.6z"/>
			<path class="st1" d="M455.7,301.3c0-5.2,3.9-8.2,9.1-8.2c5.2,0,9.1,3,9.1,8.2c0,5.2-3.9,8.2-9.1,8.2S455.7,306.5,455.7,301.3
				 M468.3,301.3c0-2.3-1-4.4-3.5-4.4s-3.5,2.1-3.5,4.4c0,2.3,1,4.4,3.5,4.4S468.3,303.6,468.3,301.3"/>
			<path class="st1" d="M487.4,297.8c-0.6-0.2-1.2-0.2-1.8-0.2c-2.5,0-3.9,1.8-3.9,4.9v6.6h-5.4v-15.7h4.9v2.9l0,0
				c0.7-2,2.6-3.3,4.6-3.3c0.6,0,1.2,0.1,1.8,0.2L487.4,297.8z"/>
			<path class="st1" d="M489.5,293.4h5v2.8l0,0c1.2-2.1,3.5-3.4,5.9-3.2c4.3,0,6.7,4.1,6.7,7.8c0,4.6-2.5,8.5-7.2,8.5
				c-2,0.1-3.8-0.8-4.9-2.4l0,0v8.5h-5.4L489.5,293.4z M498.2,297.2c-2,0-3.3,1.7-3.3,4.1c-0.1,2,1.3,3.7,3.3,3.9
				c2,0,3.3-1.7,3.3-4.2c0.3-1.9-1.1-3.7-3-3.9c0,0,0,0,0,0h-0.3"/>
			<path class="st1" d="M508.6,301.3c0-5.2,3.9-8.2,9.1-8.2c5.2,0,9.1,3,9.1,8.2c0,5.2-3.9,8.2-9.1,8.2S508.6,306.5,508.6,301.3
				 M521.3,301.3c0-2.3-1-4.4-3.5-4.4c-2.5,0-3.5,2.1-3.5,4.4c0,2.3,1,4.4,3.5,4.4S521.3,303.6,521.3,301.3"/>
			<path class="st1" d="M540.4,297.8c-0.6-0.2-1.2-0.2-1.8-0.2c-2.5,0-3.9,1.8-3.9,4.9v6.6h-5.4v-15.7h4.9v2.9l0,0
				c0.7-2,2.5-3.3,4.6-3.3c0.6,0,1.2,0.1,1.8,0.2L540.4,297.8z"/>
			<path class="st1" d="M552.5,309.1c0-0.8-0.1-1.6-0.1-2.5l0,0c-1,1.8-2.9,2.9-5,2.8c-3.1,0-5.9-1.5-5.9-4.9c0-4.8,5.2-5.4,8.1-5.4
				c0.8,0,1.7,0.1,2.5,0.2c0-2.1-1.6-2.7-3.6-2.7c-1.7,0-3.5,0.4-5,1.2v-3.7c2-0.8,4.1-1.2,6.3-1.1c3.9,0,7.5,1.7,7.5,6.5v5.9
				c0,1.2,0.1,2.5,0.3,3.7L552.5,309.1z M548.8,305.9c1.9-0.1,3.4-1.7,3.3-3.7l0,0h-2.3c-1.8,0-3.3,0.6-3.3,2.1c0,1.1,1,1.7,2.2,1.7
				"/>
			<path class="st1" d="M559,293.4h3.2v-3.5l5.3-1.7v5.2h3.8v3.7h-3.8v5.9c0,2,0.5,2.9,2.2,2.9c0.6,0,1.1-0.1,1.6-0.2l0.2,3.5
				c-1.1,0.2-2.3,0.3-3.4,0.3c-4.8,0-6-2.1-6-5.9v-6.5H559L559,293.4z"/>
			<path class="st1" d="M579.4,290.9H574V287h5.4V290.9z M574,293.4h5.4v15.7H574V293.4z"/>
			<path class="st1" d="M582.4,301.3c0-5.2,3.9-8.2,9.1-8.2s9.1,3,9.1,8.2c0,5.2-3.9,8.2-9.1,8.2S582.4,306.5,582.4,301.3
				 M595,301.3c0-2.3-1-4.4-3.5-4.4s-3.5,2.1-3.5,4.4c0,2.3,1,4.4,3.5,4.4S595,303.6,595,301.3"/>
			<path class="st1" d="M603,293.4h4.9v2.9l0,0c1.1-2.2,3.4-3.5,5.9-3.3c3.1-0.2,5.8,2.2,6,5.3c0,0,0,0,0,0c0,0.3,0,0.6,0,0.9v9.8
				h-5.4v-7.6c0-2.9-1-3.9-2.5-3.9c-2.2,0-3.4,1.5-3.4,4.9v6.6h-5.4L603,293.4z"/>
			<path class="st0" d="M291.5,337.3c-0.5,0-0.9-0.4-0.9-0.9v-77.7c0-0.5,0.4-1,1-1s1,0.4,1,1v77.7c0,0.5-0.4,0.9-0.9,0.9
				C291.6,337.3,291.6,337.3,291.5,337.3"/>
		</g>
	</g>
	<g>
		<defs>
			<path id="SVGID_1_" d="M84.8,331.1c6.6,0,13.1-1,19.4-3.1c1.5-0.5,2.9-1,4.2-1.6c-1.5,3.8-3.9,7.2-7.1,9.8
				c-6.3,4.6-13.5,7.6-21.2,8.8c2.3-4.3,3.9-8.9,4.8-13.7 M52.2,340.7c-0.2-0.1-0.3-0.2-0.5-0.3c-2.7-1.3-3.9-7.4-2.4-16.7
				c5.5,2.4,11.1,4.3,17,5.5c4.5,0.9,9,1.5,13.5,1.8c-2.2,9.5-5,14.4-6.8,14.4h-0.4C65.5,345.4,58.5,343.7,52.2,340.7 M26.8,310.6
				c-0.4-1.6-0.7-3.2-0.8-4.9c1.8,2.5,3.8,4.8,6,6.8c3.8,3.5,8,6.4,12.6,8.8c-1,4.7-1.2,9.6-0.6,14.3
				C35.7,329.5,29.7,320.6,26.8,310.6 M87.9,297.4v-5.8c5.8-0.3,11.4-1.9,16.4-4.7c4.1,8,6.4,16.9,6.5,25.9c0,2.3-0.2,4.7-0.6,7
				c-2.4,1.4-5,2.6-7.6,3.5c-5.5,1.8-11.1,2.7-16.9,2.8C87.2,316.6,88,307,87.9,297.4 M67.3,324.4c-5.9-1.2-11.6-3.1-17-5.6
				c2.2-9.5,5.6-18.7,9.9-27.5c0.7-1.5,1.5-3,2.2-4.4c3.7,1.6,7.5,2.9,11.4,3.7c3,0.6,6.1,1,9.1,1.1v5.7c0.1,9.6-0.7,19.2-2.3,28.7
				C76.1,325.9,71.6,325.3,67.3,324.4 M35.3,308.9c-3.8-3.3-6.7-7.4-8.5-12c1.3-4.9,3.6-9.5,6.8-13.5c3.3-4.3,7.2-8,11.5-11.1
				c1.4,2.5,3.3,4.8,5.4,6.8c2.3,2.1,4.8,4,7.6,5.5c-0.8,1.5-1.5,3-2.3,4.5c-4.3,8.7-7.6,17.8-10,27.2
				C42,314.3,38.5,311.8,35.3,308.9 M84.5,263.3c5.8,4.4,10.9,9.7,15,15.8c0.8,1.2,1.6,2.4,2.3,3.6c-4.4,2.4-9.3,3.7-14.3,3.9
				c-0.3-7.9-1.3-15.8-3.1-23.5 M74.7,285.6c-3.4-0.7-6.8-1.7-10-3c4-7.3,8.9-14.1,14.5-20.2c1.9,8,3.1,16.2,3.5,24.4
				c-2.6-0.1-5.3-0.4-7.8-1 M53.8,275.6c-1.9-1.7-3.4-3.7-4.6-5.9c4.7-2.9,9.8-5.1,15.1-6.7c3.2-0.9,6.5-1.7,9.8-2.2
				c-5.2,6-9.8,12.6-13.7,19.6C58,279.1,55.8,277.5,53.8,275.6 M43.2,259.9c0,0.3-0.1,0.5-0.2,0.8c-0.5,2.3-0.4,4.8,0.2,7.1
				c-5.2,3.5-9.8,7.8-13.5,12.8c-1.1,1.4-2.1,2.9-3,4.5C29.3,275.1,35.1,266.3,43.2,259.9 M47.8,261.7c0.6-2.7,2.2-5.1,4.5-6.7
				c6.4-1.7,13.3-1.2,19.4,1.3c-8.5,1.4-16.6,4.4-24.1,8.6C47.5,263.8,47.5,262.7,47.8,261.7 M87.7,255.2c1.4-0.9,2.9-1.7,4.5-2.1
				c2.5,1,5,2.4,7.2,3.9C95.6,256,91.6,255.5,87.7,255.2 M79.5,249.9c2.1,0.2,4.2,0.6,6.3,1.1c-1.5,0.8-2.9,1.7-4.2,2.8
				C81,252.4,80.3,251.1,79.5,249.9 M74.1,251.8c-2.1-0.8-4.3-1.5-6.6-2c1.8-0.2,3.5-0.3,5.3-0.3c0.8,0,1.9,1,3,3
				C75.2,252.3,74.7,252,74.1,251.8 M20,297.5c0,4.9,0.6,9.8,2,14.5l0.2,0.9v0.2c8.5,27.9,38,43.6,65.9,35.1c5.2-1.6,10-3.9,14.5-7
				l0.3-0.1c0.5-0.4,1-0.7,1.5-1.1c9.8-7.3,16.9-17.8,19.8-29.7c0.2-0.6,0.3-1.1,0.5-1.7v-0.4c2.2-10.5,1.1-21.5-3.1-31.4
				c-0.6-1.2-2.1-1.7-3.3-1.1c-1.1,0.6-1.7,1.9-1.2,3.1c4,9.5,4.9,20.1,2.4,30.1c-0.7,2.4-2,4.6-3.7,6.5v-2.6
				c-0.2-10-2.7-19.9-7.4-28.8c3.4-2.8,5.7-6.7,6.6-11c0.2-1.3-0.6-2.6-2-2.9c-1.3-0.2-2.6,0.6-2.9,2l0,0l0,0
				c-0.5,2.9-2,5.6-4.1,7.6c-0.7-1.2-1.4-2.3-2.2-3.5c-4.2-6.1-9.2-11.6-15.1-16.2c6.9,0.3,13.7,2.1,19.8,5.4c0.9,0.5,2,0.4,2.8-0.2
				c1-0.9,1.1-2.4,0.3-3.4c-7.8-11.1-21.6-17.2-38.6-17.2c-29.2,0-52.9,23.7-52.9,52.9l0,0"/>
		</defs>
		<clipPath id="SVGID_2_">
			<use xlink:href="#SVGID_1_"  style="overflow:visible;"/>
		</clipPath>
		<g class="st2">
			
				<radialGradient id="SVGID_3_" cx="-89.6419" cy="671.5497" r="1.4" gradientTransform="matrix(62.6099 0 0 62.6099 5735.5537 -41784.3242)" gradientUnits="userSpaceOnUse">
				<stop  offset="0" style="stop-color:#FFFFFF"/>
				<stop  offset="6.000000e-002" style="stop-color:#EBF9FE"/>
				<stop  offset="0.18" style="stop-color:#B6E8FA"/>
				<stop  offset="0.36" style="stop-color:#61CDF5"/>
				<stop  offset="0.54" style="stop-color:#00AEEF"/>
				<stop  offset="1" style="stop-color:#002F54"/>
			</radialGradient>
			<rect x="20" y="244.6" class="st3" width="105.7" height="105.7"/>
		</g>
	</g>
</g>
<g id="Tagline">
	<path class="st4" d="M609.4,385.9c-0.4,0.6-0.7,1.2-0.8,2c0,2,2.7,2.4,4.3,2.4c1.4,0,2.8-0.5,3.9-1.4c0.9-0.8,2.2-2.1,2.2-3.4
		c0-3.3-5.9-3.9-5.9-6.5c0-1.2,1.4-1.8,2.5-1.8c1,0,2,0.4,2.8,1.1c0.1,0.3,0.2,0.5,0.5,0.5h0.4c0.4,0,0.7-1,0.7-1.4
		c0-1.5-1.5-2-2.9-2c-0.9-0.1-1.8,0.2-2.5,0.7c-1.3,0.8-3.6,2.2-3.6,3.9c0,0.5,0.1,1,0.3,1.4c1,2,5.9,3.4,5.9,5.5
		c0,1.2-2.1,1.4-3,1.4c-1.7,0-3.9-0.7-4.3-2.5L609.4,385.9z M597.7,383c0.5-2.1,3.2-6.5,5.8-6.5c0.7-0.1,1.3,0.4,1.4,1.1v0.2
		C604.9,381.3,600.8,382.8,597.7,383 M605.9,385.7c-1.5,1.6-3.6,2.7-5.9,2.9c-1.3,0.2-2.6-0.8-2.7-2.1c0-0.1,0-0.2,0-0.3
		c0-0.8,0.1-1.6,0.3-2.4c3.6-0.3,10-1.8,10-6.1c0-1.7-1.8-2.2-3.3-2.2c-4.9,0-9.7,5.5-9.7,10.5c-0.2,2.2,1.4,4.1,3.6,4.2
		c0,0,0,0,0,0c0.2,0,0.4,0,0.5,0c3-0.3,5.7-1.7,7.6-4.1L605.9,385.7z M591.9,368.2c-0.8,0-1.5,0.7-1.5,1.5c0.1,0.8,0.7,1.4,1.5,1.4
		c0.8,0.1,1.5-0.5,1.6-1.3c0.1-0.8-0.5-1.5-1.3-1.6C592.2,368.2,592,368.2,591.9,368.2 M586.4,380c0.4-0.5,1.7-2,2.4-2
		c0.2,0,0.4,0.1,0.4,0.3c0,0,0,0,0,0l0,0c0,0.4-0.1,0.8-0.3,1.2l-2.9,8c-0.2,0.5-0.3,1-0.4,1.5c0,0.7,0.3,1.3,1.3,1.3
		c2,0,4.3-2.8,5.3-4.1l-0.5-0.4c-0.4,0.4-2.1,2-2.6,2c-0.5,0-0.4-0.2-0.4-0.5c0.1-0.5,0.2-0.9,0.3-1.3l2.8-8
		c0.2-0.6,0.4-1.1,0.5-1.7c0-0.5-0.2-0.8-1-0.8c-2,0-4.3,2.7-5.3,4.1L586.4,380z M578.7,375.9h-3.3l-0.4,1.3h3.3l-3,9.4
		c-0.2,0.6-0.4,1.3-0.5,2c-0.1,0.8,0.6,1.6,1.4,1.6h0.1c2.5,0,5.2-2.9,6.7-4.5l-0.5-0.5c-0.9,0.8-2.8,2.7-4.2,2.7
		c-0.3,0-0.6-0.2-0.7-0.5c0,0,0,0,0,0v-0.1c0-0.3,0.1-0.7,0.2-1l2.9-9.1h3.5l0.4-1.3h-3.6l1.4-3.9H580L578.7,375.9z M571.8,368.1
		c-0.8,0.1-1.4,0.7-1.4,1.5s0.7,1.4,1.5,1.4l0,0c0.7-0.1,1.3-0.7,1.4-1.4C573.3,368.7,572.6,368.1,571.8,368.1 M566.2,379.8
		c0.4-0.5,1.7-2,2.4-2c0.2,0,0.4,0.1,0.4,0.3c0,0,0,0,0,0l0,0c0,0.5-0.1,0.9-0.3,1.3l-2.9,8c-0.2,0.5-0.3,1-0.4,1.5
		c0,0.7,0.3,1.3,1.3,1.3c2,0,4.3-2.8,5.3-4.1l-0.5-0.4c-0.3,0.4-2.1,2-2.5,2s-0.4-0.2-0.4-0.5c0.1-0.5,0.2-0.9,0.3-1.3l2.8-8
		c0.2-0.6,0.4-1.1,0.5-1.7c0-0.5-0.3-0.8-1-0.8c-2,0-4.3,2.7-5.3,4.1L566.2,379.8z M547.1,379.8l0.9-0.9c0.5-0.6,1.2-1,2-1.1
		c0.4,0,0.5,0.3,0.5,0.6c-0.1,0.5-0.2,1.1-0.4,1.6l-3.3,9.4c0.3,0.3,0.7,0.4,1.1,0.4c0.4,0,1.1,0,1.2-0.4l0.7-1.8
		c0.9-2.4,2.4-4.6,4.2-6.4c1.1-1.2,3-3.3,4.9-3.3c0.4,0,0.8,0.2,0.8,0.6c-0.1,0.5-0.2,1.1-0.4,1.6l-2.6,6.7c-0.3,0.6-0.5,1.3-0.5,2
		c0,0.5,0.4,1,1.3,1c1.9-0.2,3.6-1.2,4.7-2.7l1.2-1.4l-0.5-0.2c-0.5,0.7-2,2.2-2.9,2.2c-0.5,0-0.6-0.3-0.6-0.7
		c0.1-0.6,0.2-1.1,0.5-1.6l2.7-6.9c0.2-0.5,0.3-1,0.3-1.5c0-0.7-0.3-1.3-1.3-1.3c-3.3,0-8.3,5.1-9.8,7.3l0,0l1.7-4.7
		c0.2-0.5,0.3-1,0.4-1.5c0-0.5-0.4-1-0.9-1.1c0,0,0,0,0,0c-0.1,0-0.1,0-0.2,0c-2.2,0-4.6,2.5-5.9,3.9L547.1,379.8z M544,385.4
		c-0.7,0.5-2.1,2-2.9,2c-0.4,0-0.5-0.2-0.5-0.4c0-0.2,0-0.3,0.1-0.5l3.7-10.2c-0.4-0.3-0.9-0.9-1.5-0.9s-0.9,0.4-1.2,1
		c-1.1,2.8-7.5,10.8-9.8,10.8c-0.3,0-0.6,0-0.6-0.3c0-0.1,0-0.3,0-0.4l3-8.4c0.2-0.5,0.4-1.1,0.4-1.6c0-0.5-0.4-1-0.9-1c0,0,0,0,0,0
		c-0.1,0-0.1,0-0.2,0c-1.6,0-3.4,1.6-4.7,2.9l-1.1,1.1l0.5,0.5c0.6-0.6,1.8-2,2.8-2c0.2,0,0.4,0.1,0.5,0.4c0,0,0,0,0,0l0,0
		c0,0.2-0.1,0.5-0.1,0.7l-2.8,8.4c-0.2,0.4-0.3,0.9-0.3,1.4c0.1,0.7,0.7,1.3,1.4,1.2c3.3,0,8.7-7,10.4-9l0,0l-2,5.5
		c-0.3,0.7-0.5,1.5-0.6,2.3c0,0.7,0.5,1.1,1.3,1.1c2.3,0,4.4-2.4,5.7-3.9L544,385.4z M521.6,376h-3.3l-0.4,1.3h3.3l-3,9.4
		c-0.2,0.6-0.4,1.3-0.5,2c-0.1,0.8,0.6,1.6,1.4,1.6l0,0c2.5,0,5.2-2.9,6.7-4.5l-0.5-0.5c-0.9,0.8-2.9,2.7-4.2,2.7
		c-0.3,0-0.7-0.2-0.7-0.6c0,0,0,0,0,0v0c0-0.3,0.1-0.7,0.2-1l2.9-9.1h3.5l0.4-1.3h-3.6l1.4-3.9h-2.7L521.6,376z M504.6,380.3
		c0.5-0.6,2-2.1,2.8-2.1c0.4,0,0.6,0.5,0.6,0.8c-0.1,0.7-0.2,1.3-0.4,2l-2.6,8.6c0,0.1,0,0.2,0,0.3c0,0.3,0.6,0.6,1.1,0.6
		s1.1,0,1.2-0.3l0.6-2c1.1-3.2,3.5-9.3,5.9-9.3c0.4,0,0.8,0.1,1.3,0.1c1,0,1.4-1.6,1.4-2.3c0.1-0.5-0.2-1-0.7-1.1c0,0,0,0-0.1,0
		c-0.1,0-0.2,0-0.3,0c-2.1,0-5.3,5.5-6.2,7.1l0,0l1.3-4.3c0.2-0.5,0.3-1.1,0.3-1.6c0-0.8-0.5-1.2-1.4-1.2c-1.6,0-4.2,3-5.1,4.2
		L504.6,380.3z M486.3,384c-0.1,3.4,2.5,6.2,5.8,6.3c0,0,0,0,0,0c0.3,0,0.5,0,0.8,0c4.7,0,8.6-3.7,8.8-8.4c0.1-3.4-2.6-6.2-6-6.3
		c-0.2,0-0.3,0-0.5,0C490.6,375.6,486.6,379.3,486.3,384 M489,385.1c0-3.5,1.8-8.7,6.3-8.7c2.9,0,3.8,2.2,3.8,4.4
		c0,3.2-1.8,8.7-6.2,8.7C489.9,389.5,489,387.4,489,385.1 M474,377c0.9-0.4,1.9-0.5,2.9-0.5c1.2,0,3.3,0.3,3.3,2.9
		c0,3.1-3.3,10.1-6.8,10.1c-1.2,0-1.8-1.4-1.8-2.1c0-0.9,0.1-1.7,0.4-2.5L474,377z M471.5,376.6c-1.4,0.4-2.7,0.8-4,1.4l-0.2,1.2
		c1.3-0.6,2.6-1.1,3.9-1.5l-5.1,19l0.2,0.3l2.3-0.3l3-0.2l0.2-0.6l-2.7-0.4l1.7-6.2c0.8,0.6,1.7,0.9,2.7,0.9c4.9,0,9.7-6.7,9.7-10.9
		c0-3-2.2-3.9-5.1-3.9c-1.3,0-2.5,0.2-3.7,0.5l1-3.9l-2.8,0.7L471.5,376.6z M455.5,377c0.9-0.4,1.9-0.5,2.9-0.5
		c1.5-0.2,3,0.8,3.2,2.4c0,0,0,0,0,0c0,0.2,0,0.4,0,0.6c0,3.1-3.3,10.1-6.8,10.1c-1.2,0-2-1.4-2-2.1c0-0.9,0.2-1.7,0.4-2.5
		L455.5,377z M452.9,376.6c-1.3,0.4-2.6,0.8-3.9,1.4l-0.2,1.2c1.3-0.6,2.6-1.1,3.9-1.5l-5.1,19l0.2,0.3l2.3-0.3l3-0.2l0.2-0.6
		l-2.7-0.4l1.6-6.1c0.8,0.6,1.7,0.9,2.7,0.9c4.9,0,9.7-6.7,9.7-10.9c0-3-2.2-3.9-5.1-3.9c-1.3,0-2.5,0.2-3.7,0.5l1-3.9l-2.8,0.7
		L452.9,376.6z M420.9,380c0,6.4,4.6,10.3,11.4,10.3c7.2,0.2,13.2-5.4,13.4-12.5v-0.4c0-5.9-5.5-9.8-11.5-9.8
		C427.1,367.3,421.2,372.9,420.9,380L420.9,380 M424.2,380.6c0-5.6,3.1-12.1,10-12.1c5.7,0,8.2,4.2,8.2,8.9c0,5.2-3.4,11.9-10,11.9
		C426.6,389.3,424.2,385.5,424.2,380.6 M404.2,379c0,2.1-1.5,5.4-4.2,5.4c-2,0-2.5-1.3-2.5-2.8c0-2,1.5-5.4,4.2-5.2
		c1.3,0,2.4,1,2.4,2.3c0,0,0,0,0,0C404.2,378.8,404.2,378.9,404.2,379 M402.2,391.6c0.9,0.4,1.6,1,1.6,2c0,2-3.3,2.5-4.9,2.5
		c-2.1,0-5.1-0.7-5.1-3.1c0-1.7,3.4-3.1,4.1-3.4L402.2,391.6z M398.3,386.9c-0.4-0.2-0.6-0.3-0.6-0.7s0.7-1,1-1.1h1.5
		c3.3,0,6.8-2.1,6.8-5.4c0-1-0.4-1.9-1.1-2.6c1.3,0.1,2,0.8,2.6,0.8s0.8-0.6,0.8-1.2s-0.1-0.9-0.5-0.9c-0.4,0-0.7,0.2-1,0.4
		c-0.3,0.2-0.7,0.3-1.1,0.4c-0.2,0-0.5-0.1-0.7-0.2c-1.5-0.5-3-0.8-4.6-0.8c-3.2,0-6.5,2.3-6.5,5.3c0,1.8,1.2,3.4,2.8,3.9
		c-0.9,0.6-2.7,1.5-2.7,2.7s1.2,1.4,1.9,1.7c-1.9,0.7-5.3,2-5.3,4.3c0,3,4.5,3.6,6.9,3.6c2.7,0,7.5-1.3,7.5-4.5
		c0-1.8-1.1-2.4-2.6-3.1L398.3,386.9z M375.4,380.1l0.9-0.9c0.5-0.6,1.2-1,2-1.1c0.4,0,0.5,0.3,0.5,0.6c-0.1,0.5-0.2,1.1-0.4,1.6
		l-3.3,9.3c0.3,0.3,0.7,0.4,1.1,0.4c0.4,0,1.2,0,1.3-0.4l0.7-1.8c0.9-2.4,2.4-4.6,4.2-6.4c1.1-1.2,3-3.3,4.9-3.3
		c0.4,0,0.8,0.2,0.8,0.6c-0.1,0.5-0.2,1.1-0.4,1.6l-2.6,6.7c-0.3,0.6-0.4,1.3-0.5,2c0,0.5,0.4,1,1.3,1c1.8-0.3,3.5-1.3,4.5-2.8
		l1.2-1.4l-0.6-0.3c-0.5,0.7-2,2.2-2.9,2.2c-0.5,0-0.6-0.3-0.6-0.7c0.1-0.6,0.3-1.1,0.5-1.6l2.7-6.9c0.2-0.5,0.3-1,0.3-1.5
		c0-0.7-0.3-1.3-1.4-1.3c-3.3,0-8.3,5.1-9.8,7.3l0,0l1.8-4.7c0.2-0.5,0.3-1,0.4-1.5c0-0.5-0.4-1-0.9-1.1c0,0,0,0,0,0
		c-0.1,0-0.1,0-0.2,0c-2.2,0-4.6,2.5-5.9,3.9L375.4,380.1z M372.4,368.4c-0.9-0.1-1.6,0.5-1.8,1.3c0,0,0,0,0,0l0,0
		c0,0.9,0.6,1.6,1.5,1.6c0.9,0,1.6-0.6,1.6-1.5s-0.6-1.6-1.5-1.6c0,0-0.1,0-0.1,0 M366.6,380c0.4-0.5,1.7-2,2.4-2
		c0.2,0,0.4,0.1,0.4,0.3c0,0,0,0,0,0l0,0c0,0.4-0.1,0.8-0.3,1.2l-2.9,8c-0.2,0.5-0.3,1-0.4,1.5c0,0.7,0.3,1.3,1.3,1.3
		c2,0,4.3-2.8,5.3-4.1l-0.5-0.4c-0.3,0.4-2.1,2-2.5,2s-0.5-0.2-0.5-0.5c0.1-0.5,0.2-0.9,0.4-1.3l2.7-8c0.2-0.6,0.4-1.1,0.5-1.7
		c0-0.5-0.2-0.8-1-0.8c-2,0-4.3,2.7-5.3,4.1L366.6,380z M358.8,376h-3.3l-0.4,1.3h3.3l-3,9.4c-0.2,0.6-0.4,1.3-0.4,2
		c-0.1,0.8,0.5,1.5,1.3,1.6c0,0,0,0,0,0h0.1c2.5,0,5.2-2.9,6.7-4.5l-0.5-0.5c-0.9,0.8-2.8,2.7-4.2,2.7c-0.3,0-0.6-0.2-0.7-0.5
		c0,0,0,0,0,0v-0.1c0-0.3,0.1-0.7,0.2-1l2.9-9.1h3.7l0.4-1.3h-3.6l1.4-3.9h-2.7L358.8,376z M350.2,376.5c-0.5-0.6-1.3-1-2.1-1
		c-4.3,0-10.9,7.2-10.9,12.2c-0.1,1.3,0.8,2.5,2.1,2.6c0,0,0,0,0,0c0.1,0,0.3,0,0.4,0c2.7,0,5.9-3.6,7.5-6l0,0l-0.9,2.8
		c-0.3,0.7-0.5,1.5-0.6,2.3c0,0.6,0.6,0.9,1.1,0.9c2.1,0,4.1-2.8,5.4-4.1l-0.5-0.4c-0.6,0.5-1.5,1.8-2.5,1.8c-0.2,0-0.4-0.2-0.4-0.4
		c0,0,0,0,0,0l0,0c0-0.3,0-0.5,0.1-0.8l3.3-11.1V375c-0.1-0.1-0.2-0.2-0.3-0.2h-0.7c-0.4,0-0.6,0.4-0.7,0.6L350.2,376.5z
		 M339.7,385.8c0-3.1,3.9-8.8,7.5-8.8c0.9,0,1.6,0.7,1.7,1.6c0,2.8-4.2,9.4-7.4,9.4C340.1,388,339.7,386.9,339.7,385.8 M326.4,383
		c0.5-2,3.2-6.5,5.8-6.5c0.7-0.1,1.3,0.4,1.4,1.1v0.2C333.5,381.3,329.5,382.8,326.4,383 M334.5,385.7c-1.5,1.7-3.6,2.7-5.9,2.9
		c-1.3,0.2-2.6-0.8-2.7-2.1c0,0,0,0,0,0c0-0.1,0-0.2,0-0.3c0-0.8,0.1-1.6,0.3-2.4c3.6-0.3,10-1.8,10-6.1c0-1.7-1.8-2.2-3.3-2.2
		c-4.9,0-9.7,5.5-9.7,10.5c-0.2,2.2,1.4,4.1,3.6,4.2c0,0,0,0,0,0h0.6c3-0.3,5.8-1.7,7.6-4.1L334.5,385.7z M310.5,380.2
		c0.5-0.6,2-2.1,2.8-2.1c0.4,0,0.6,0.5,0.6,0.8c0,0.7-0.2,1.3-0.4,2l-2.6,8.6c0,0.1,0,0.2,0,0.3c0,0.3,0.6,0.6,1.1,0.6
		s1.1,0,1.2-0.3l0.6-2c1.1-3.2,3.5-9.3,5.9-9.3c0.4,0,0.8,0.1,1.2,0.1c1,0,1.4-1.6,1.4-2.3c0.1-0.5-0.2-1-0.7-1.1c0,0,0,0-0.1,0
		h-0.3c-2.1,0-5.3,5.5-6.2,7.1l0,0l1.3-4.3c0.2-0.5,0.3-1.1,0.3-1.6c0-0.8-0.5-1.2-1.4-1.2c-1.6,0-4.2,3-5.1,4.2L310.5,380.2z
		 M309.4,368.5l-0.4-0.2c-0.3,0.3-0.6,0.6-1,0.6c-1.1,0-1.7-1.5-6.7-1.5c-7-0.2-12.9,5.3-13.2,12.3c0,6.4,4.7,10.5,11.2,10.5
		c1.5,0,2.9-0.2,4.3-0.7c0.7-0.3,1.5-0.6,2.3-0.8c0.3,0,0.6,0.1,0.9,0.3l1.3-5.3l-0.7-0.2c-1.6,3.5-3.8,5.7-8.1,5.7
		c-5.2,0-7.7-4.1-7.7-9.5c0-5.5,3.5-11.3,10.4-11.3c1.6-0.1,3.2,0.5,4.4,1.5c1.1,1,1.6,2.5,1.3,3.9l0.7,0.2L309.4,368.5z M268,394.2
		c3.1,0,6.5-2,6.5-5.1c0.2-1.5-0.8-2.8-2.3-3c0,0,0,0,0,0h-0.2c-0.9,0-2.2,0.4-2.2,1.8c0,0.4,0.1,0.8,0.4,1.1c0.7,0.7,1.1,0.5,2,0.8
		c0.2,0.1,0.3,0.4,0.2,0.6c0,2.3-2.5,2.9-4.5,3.2L268,394.2z M256.3,385.9c-0.4,0.6-0.7,1.2-0.8,2c0,2,2.6,2.4,4.3,2.4
		c1.4,0,2.8-0.5,3.9-1.4c0.9-0.8,2.2-2.1,2.2-3.4c0-3.3-5.9-3.9-5.9-6.5c0-1.2,1.4-1.8,2.5-1.8c1,0,2,0.4,2.7,1.1
		c0.1,0.3,0.2,0.5,0.5,0.5h0.4c0.4,0,0.7-1,0.7-1.4c0-1.5-1.5-2-2.9-2c-0.9-0.1-1.8,0.2-2.5,0.7c-1.3,0.8-3.7,2.2-3.7,3.9
		c0,0.5,0.1,1,0.3,1.4c1,2,5.9,3.4,5.9,5.5c0,1.2-2,1.4-3,1.4c-1.7,0-3.9-0.7-4.3-2.5L256.3,385.9z M249.5,375.9h-3.2l-0.4,1.3h3.3
		l-3,9.4c-0.2,0.6-0.4,1.3-0.4,2c-0.1,0.8,0.6,1.6,1.4,1.6h0.1c2.4,0,5.2-2.9,6.7-4.5l-0.5-0.5c-0.9,0.8-2.9,2.7-4.2,2.7
		c-0.3,0-0.6-0.2-0.7-0.5c0,0,0,0,0,0v-0.1c0-0.3,0.1-0.7,0.2-1l2.9-9.1h3.5l0.4-1.3h-3.6l1.4-3.9H251L249.5,375.9z M233.7,382.9
		c0.5-2,3.2-6.5,5.8-6.5c0.7-0.1,1.3,0.4,1.4,1.1v0.2C240.8,381.2,236.8,382.7,233.7,382.9 M241.8,385.6c-1.5,1.7-3.6,2.7-5.9,2.9
		c-1.3,0.1-2.5-0.9-2.6-2.2l0,0c0-0.8,0.1-1.6,0.3-2.4c3.6-0.3,10-1.8,10-6.1c0-1.7-1.8-2.2-3.3-2.2c-4.9,0-9.7,5.5-9.7,10.5
		c-0.2,2.2,1.4,4.1,3.6,4.2c0,0,0,0,0,0c0.2,0,0.4,0,0.5,0c3-0.3,5.8-1.7,7.6-4.1L241.8,385.6z M224.8,378.8c0,2.5-4.3,4.3-6.7,4.5
		h-1.4c0.6-2.1,3.5-6,6.3-6C224.3,377.3,224.8,377.9,224.8,378.8 M212.6,389.5c0,0.4,0.5,0.7,1.1,0.7s1.1-0.2,1.3-0.6l1.6-5.6
		c0.7,0.2,1.4,0.7,1.7,1.3l2.4,2.9c0.9,1.2,2.4,1.9,3.9,2c1.1,0,2.3-0.3,3.3-0.8v-0.8c-0.3,0.2-0.6,0.3-1,0.4
		c-0.9,0.1-1.8-0.2-2.5-0.8c-1.6-1.3-3.2-3.8-4.7-4.4l0,0c3-0.6,7.5-2.8,7.5-5.9c-0.1-1.2-1.1-2.2-2.4-2.1l0,0c-2.7,0-5.9,2.8-7,4.4
		l0,0l3.9-13.9l-0.4-0.3c-1.5,0.4-3.1,0.8-4.6,1v0.5l1.6,0.9L212.6,389.5z M200.1,380.1c0.5-0.6,2-2.1,2.8-2.1
		c0.4,0,0.6,0.5,0.6,0.8c-0.1,0.7-0.2,1.3-0.4,2l-2.7,8.6v0.3c0,0.3,0.6,0.6,1.1,0.6c0.5,0,1.1,0,1.2-0.3l0.6-2
		c1.1-3.2,3.5-9.3,5.9-9.3c0.4,0,0.8,0.1,1.2,0.1c1.1,0,1.4-1.6,1.4-2.3c0.1-0.5-0.3-1-0.8-1.1h-0.3c-2.1,0-5.3,5.5-6.2,7.1l0,0
		l1.3-4.3c0.2-0.5,0.3-1.1,0.3-1.6c0-0.8-0.5-1.2-1.4-1.2c-1.6,0-4.2,3-5.1,4.2L200.1,380.1z M195.6,376.4c-0.5-0.5-1.2-0.8-2-0.8
		c-4.3,0-10.9,7.2-10.9,12.2c-0.1,1.3,0.8,2.5,2.1,2.6c0,0,0,0,0,0h0.4c2.7,0,5.9-3.6,7.5-6l0,0l-0.9,2.8c-0.3,0.7-0.5,1.5-0.6,2.3
		c0,0.6,0.6,0.9,1.2,0.9c2.1,0,4.1-2.8,5.4-4.1l-0.5-0.4c-0.6,0.5-1.5,1.8-2.5,1.8c-0.2,0-0.4-0.1-0.4-0.3c0,0,0,0,0,0l0,0
		c0-0.3,0-0.5,0.1-0.8l3.3-11.1v-0.3c0,0,0-0.2-0.3-0.2h-0.7c-0.4,0-0.6,0.4-0.7,0.6L195.6,376.4z M185.1,385.7
		c0-3.1,3.9-8.8,7.5-8.8c0.9,0,1.6,0.7,1.7,1.6c0,2.8-4.2,9.4-7.4,9.4C185.5,387.9,185.1,386.8,185.1,385.7 M151.1,389.6h7.5
		l0.2-0.8h-1.4c-1.1,0-1.3-0.5-1.3-1.2c0-0.3,0.1-0.6,0.2-0.9l3.7-14.5l0,0l4.4,17.5h1.1l10.2-18.6l0,0l-1.2,15.7
		c-0.2,2-0.9,2.2-2.9,2.2h-0.4l-0.2,0.8h9.2l0.2-0.8h-0.5c-1.8,0-2.4-0.6-2.3-2.3l1.1-15.9c0-1.4,0.6-2.1,2.6-2.1h0.4l0.2-0.8h-5.9
		l-9.7,17.6l-4.5-17.6h-6.1l-0.2,0.8h0.4c1.5,0,2.5,0.2,3.1,1.7l-3.9,15.7c-0.7,2.7-1.4,3-3.2,3h-0.4L151.1,389.6z M136.8,378.8
		c0,2.1-1.5,5.4-4.2,5.4c-1.8,0-2.5-1.3-2.5-2.8c0-2.1,1.5-5.4,4.2-5.2c1.3,0,2.4,1,2.4,2.3c0,0,0,0,0,0
		C136.8,378.5,136.8,378.7,136.8,378.8 M134.8,391.4c0.9,0.4,1.6,1,1.6,2c0,2-3.3,2.5-4.9,2.5c-2,0-5.1-0.7-5.1-3.1
		c0-1.7,3.4-3.1,4.1-3.4L134.8,391.4z M130.8,386.6c-0.3-0.2-0.6-0.3-0.6-0.7s0.7-1,1-1.1c0.3-0.1,1,0,1.5,0c3.3,0,6.8-2.1,6.8-5.4
		c0-1-0.4-1.9-1.1-2.6c1.3,0.1,2,0.8,2.6,0.8s0.8-0.6,0.8-1.2s0-0.9-0.5-0.9c-0.4,0-0.7,0.2-1.1,0.4c-0.3,0.2-0.7,0.3-1.1,0.4
		c-0.2,0-0.5-0.1-0.7-0.2c-1.4-0.4-2.9-0.6-4.4-0.6c-3.2,0-6.5,2.3-6.5,5.3c0,1.8,1.2,3.4,2.8,3.9c-0.9,0.6-2.7,1.5-2.7,2.7
		s1.2,1.4,2,1.7c-2,0.7-5.3,2-5.3,4.3c0,3,4.5,3.6,6.9,3.6c2.7,0,7.5-1.3,7.5-4.5c0-1.8-1.1-2.4-2.6-3.1L130.8,386.6z M107.9,380
		l0.9-0.9c0.5-0.6,1.2-1,2-1.1c0.4,0,0.5,0.3,0.5,0.6c-0.1,0.5-0.2,1.1-0.4,1.6l-3.3,9.3c0.3,0.3,0.7,0.4,1.1,0.4
		c0.4,0,1.1-0.1,1.2-0.4l0.7-1.8c0.9-2.4,2.4-4.6,4.2-6.4c1.1-1.2,3-3.3,4.9-3.3c0.4,0,0.8,0.2,0.8,0.6c-0.1,0.5-0.2,1.1-0.4,1.6
		l-2.6,6.7c-0.3,0.6-0.5,1.3-0.5,2c0,0.5,0.4,1,1.3,1c1.9-0.2,3.6-1.2,4.7-2.7l1.2-1.4l-0.5-0.3c-0.5,0.7-2,2.2-2.9,2.2
		c-0.5,0-0.6-0.3-0.6-0.7c0.1-0.6,0.2-1.1,0.5-1.6l2.7-6.9c0.2-0.5,0.3-1,0.3-1.5c0-0.7-0.3-1.3-1.3-1.3c-3.3,0-8.3,5.1-9.8,7.3l0,0
		l1.7-4.7c0.2-0.5,0.3-1,0.4-1.5c0-0.5-0.3-1-0.8-1.1c-0.1,0-0.1,0-0.2,0c-2.2,0-4.6,2.5-5.9,3.9L107.9,380z M104.9,368.3
		c-0.8,0.1-1.4,0.7-1.4,1.5c0.1,0.8,0.7,1.4,1.5,1.4c0.7-0.1,1.3-0.7,1.4-1.4C106.4,368.9,105.7,368.3,104.9,368.3 M99.3,380
		c0.4-0.5,1.7-2,2.4-2c0.2,0,0.4,0.1,0.4,0.3c0,0,0,0,0,0l0,0c0,0.4-0.1,0.8-0.3,1.2l-2.9,8c-0.2,0.5-0.3,1-0.4,1.5
		c0,0.7,0.3,1.3,1.3,1.3c2,0,4.3-2.8,5.3-4.1l-0.5-0.4c-0.3,0.4-2.1,2-2.5,2c-0.5,0-0.4-0.2-0.4-0.5c0.1-0.4,0.2-0.9,0.4-1.3l2.7-8
		c0.2-0.6,0.4-1.1,0.5-1.7c0-0.5-0.2-0.8-1-0.8c-2,0-4.3,2.7-5.3,4.1L99.3,380z M91.6,376h-3.2l-0.4,1.3h3.3l-3.1,9.4
		c-0.2,0.6-0.4,1.3-0.4,2c-0.1,0.8,0.6,1.6,1.4,1.6l0,0c2.5,0,5.2-2.9,6.7-4.5l-0.5-0.5c-0.9,0.8-2.9,2.7-4.2,2.7
		c-0.3,0-0.7-0.2-0.7-0.6c0,0,0,0,0,0v0c0-0.3,0.1-0.7,0.2-1l2.9-9.1h3.6l0.4-1.3h-3.5l1.4-3.9h-2.6L91.6,376z M83,376.5
		c-0.5-0.6-1.2-0.9-2-0.9c-4.3,0-10.9,7.2-10.9,12.2c-0.1,1.3,0.9,2.4,2.2,2.5c0,0,0,0,0,0h0.2c2.7,0,5.9-3.6,7.5-6l0,0l-0.9,2.8
		c-0.3,0.7-0.5,1.5-0.6,2.3c0,0.6,0.6,0.9,1.1,0.9c2.1,0,4.1-2.8,5.4-4.1l-0.5-0.4c-0.6,0.5-1.5,1.8-2.5,1.8c-0.2,0-0.4-0.1-0.4-0.3
		c0,0,0,0,0,0l0,0c0-0.3,0-0.5,0.1-0.8l3.3-11.1c0-0.1,0-0.2,0-0.3c0,0,0-0.2-0.3-0.2h-0.5c-0.4,0-0.6,0.4-0.7,0.6L83,376.5z
		 M72.6,385.8c0-3.1,3.9-8.8,7.5-8.8c0.9,0,1.6,0.7,1.7,1.6c0,2.8-4.2,9.4-7.4,9.4C73,388,72.6,386.9,72.6,385.8 M59.3,383
		c0.5-2.1,3.2-6.5,5.8-6.5c0.7-0.1,1.3,0.4,1.4,1.1v0.2C66.4,381.3,62.3,382.8,59.3,383 M67.4,385.7c-1.5,1.6-3.6,2.7-5.9,2.9
		c-1.3,0.1-2.5-0.8-2.7-2.1c0,0,0,0,0,0c0-0.1,0-0.2,0-0.3c0-0.8,0.1-1.6,0.3-2.4c3.6-0.3,10-1.8,10-6.1c0-1.7-1.8-2.2-3.3-2.2
		c-5,0-9.8,5.5-9.8,10.5c-0.2,2.2,1.4,4.1,3.6,4.2c0,0,0,0,0,0h0.5c3-0.3,5.8-1.7,7.6-4.1L67.4,385.7z M43.4,380.3
		c0.5-0.6,2-2.1,2.8-2.1c0.5,0,0.6,0.5,0.6,0.8c0,0.7-0.2,1.3-0.4,2l-2.6,8.6c0,0.1,0,0.2,0,0.3c0,0.3,0.6,0.6,1.1,0.6
		c0.5,0,1.1,0,1.2-0.3l0.6-2c1.1-3.2,3.5-9.3,5.9-9.3c0.4,0,0.8,0.1,1.2,0.1c1,0,1.4-1.6,1.4-2.3c0.1-0.5-0.3-1-0.8-1.1c0,0,0,0,0,0
		c-0.1,0-0.2,0-0.3,0c-2.1,0-5.3,5.5-6.2,7.1l0,0l1.1-4.4c0.2-0.5,0.3-1.1,0.3-1.6c0-0.8-0.5-1.2-1.4-1.2c-1.6,0-4.2,3-5.1,4.2
		L43.4,380.3z M42.2,368.5l-0.4-0.2c-0.3,0.3-0.6,0.6-1,0.6c-1.1,0-1.7-1.5-6.7-1.5c-7-0.2-12.9,5.3-13.2,12.3
		c0,6.4,4.7,10.5,11.2,10.5c1.5,0,2.9-0.2,4.3-0.7c0.7-0.3,1.5-0.6,2.3-0.8c0.3,0,0.6,0.1,0.9,0.3l1.4-5.3l-0.7-0.2
		c-1.6,3.5-3.8,5.7-8.1,5.7c-5.2,0-7.7-4.1-7.7-9.5c0-5.5,3.6-11.3,10.4-11.3c1.6-0.1,3.2,0.5,4.4,1.5c1.1,1,1.6,2.5,1.3,3.9
		l0.7,0.2L42.2,368.5z"/>
</g>
</svg>
